<svg width="56" height="68" viewBox="0 0 56 68" fill="none" xmlns="http://www.w3.org/2000/svg">
<mask id="mask0_1_26" style="mask-type:luminance" maskUnits="userSpaceOnUse" x="0" y="0" width="56" height="68">
<path d="M55.02 0H0V67.182H55.02V0Z" fill="white"/>
</mask>
<g mask="url(#mask0_1_26)">
<path d="M55.02 27.5321C55.0216 29.8669 54.7218 32.1921 54.128 34.4501C53.5478 36.6649 52.6981 38.8002 51.598 40.8081C50.9826 41.9234 50.2874 42.9929 49.518 44.0081C49.488 44.0601 49.466 44.0891 49.459 44.1081L49.452 44.1151C48.8527 44.9053 48.2125 45.6637 47.534 46.3871C46.5717 47.4104 45.5312 48.3572 44.422 49.2191C44.422 49.2191 36.441 54.9501 26.868 54.9501L25.297 54.9571L18.578 55.0011V36.4791H27.532C28.7111 36.4887 29.8793 36.2523 30.962 35.7851C32.0294 35.3317 33.0005 34.6787 33.823 33.8611C34.6433 33.0359 35.2948 32.0587 35.741 30.9841C36.2106 29.8945 36.4467 28.7185 36.434 27.5321C36.438 26.9305 36.381 26.3301 36.264 25.7401C36.2601 25.7333 36.2578 25.7258 36.257 25.7181C36.1456 25.1503 35.9726 24.5963 35.741 24.0661C34.8342 21.9032 33.1156 20.182 30.954 19.2721C29.8743 18.8044 28.7086 18.5683 27.532 18.5791H18.578C18.5767 13.6522 16.619 8.92748 13.1352 5.44356C9.65149 1.95964 4.92688 0.00167306 0 8.25541e-05H27.532C30.002 -0.0060215 32.4612 0.326403 34.841 0.988082C37.135 1.62808 39.3364 2.56287 41.39 3.76908C42.128 4.20408 42.843 4.67608 43.537 5.17808L43.595 5.21408C46.7031 7.46981 49.3099 10.3453 51.251 13.6591C52.4558 15.7162 53.3905 17.92 54.032 20.2161C54.6932 22.5983 55.0256 25.0598 55.02 27.5321Z" fill="url(#paint0_linear_1_26)"/>
<path d="M52.0402 67.1821H32.1562L29.0222 59.9321L26.8652 54.9471C36.4382 54.9471 44.4192 49.2161 44.4192 49.2161L46.7052 54.6161L47.1052 55.5531C47.1052 55.5601 47.1132 55.5601 47.1132 55.5671L52.0402 67.1821Z" fill="url(#paint1_linear_1_26)"/>
<path d="M18.578 18.579V67.179H0V0C4.92688 0.00159051 9.65149 1.95956 13.1352 5.44348C16.619 8.9274 18.5767 13.6521 18.578 18.579Z" fill="url(#paint2_linear_1_26)"/>
<g style="mix-blend-mode:multiply" opacity="0.16">
<path d="M18.578 18.579C18.5767 13.6521 16.619 8.9274 13.1352 5.44348C9.65149 1.95956 4.92688 0.00159051 0 0H16.823C20.577 3.511 24.184 9.264 25.076 18.579H18.578Z" fill="black"/>
</g>
<g style="mix-blend-mode:multiply" opacity="0.16">
<path d="M25.2971 36.479V54.954L18.5781 54.998V36.479H25.2971Z" fill="black"/>
</g>
<g style="mix-blend-mode:multiply" opacity="0.16">
<path d="M46.7082 54.6151C41.2058 57.4988 35.2027 59.3035 29.0222 59.9321L26.8652 54.9471C36.4382 54.9471 44.4192 49.2161 44.4192 49.2161L46.7082 54.6151Z" fill="black"/>
</g>
<g style="mix-blend-mode:multiply" opacity="0.25">
<path d="M55.0201 27.532C55.0217 29.8668 54.7219 32.192 54.1281 34.45C53.5479 36.6648 52.6982 38.8001 51.5981 40.808C50.9827 41.9233 50.2876 42.9928 49.5181 44.008C49.6511 43.794 49.9751 43.278 50.4101 42.489C51.205 41.0513 51.888 39.5545 52.4531 38.012C53.2428 35.853 53.785 33.6113 54.0691 31.33C54.2168 30.0521 54.2856 28.7663 54.2751 27.48C54.2621 26.1513 54.1538 24.8252 53.9511 23.512C53.7588 22.1986 53.4676 20.9016 53.0801 19.632C52.7057 18.4009 52.2552 17.1942 51.7311 16.019C51.2314 14.9185 50.6698 13.8471 50.0491 12.81C49.4491 11.829 48.8251 10.922 48.2121 10.118C47.2153 8.8127 46.1179 7.5873 44.9301 6.453C44.0681 5.619 43.5371 5.177 43.5371 5.177L43.5951 5.213C46.7033 7.46873 49.3101 10.3442 51.2511 13.658C52.456 15.7151 53.3907 17.9189 54.0321 20.215C54.6934 22.5976 55.0258 25.0594 55.0201 27.532Z" fill="black"/>
</g>
<g style="mix-blend-mode:multiply" opacity="0.25">
<path d="M52.04 67.1821H37.208C38.447 66.9981 39.679 66.8871 40.918 66.7821C42.157 66.6771 43.389 66.6051 44.618 66.5461C45.847 66.4871 47.096 66.4581 48.328 66.4351L50.894 66.4131C50.643 65.7941 50.394 65.1741 50.157 64.5471C49.766 63.5671 49.397 62.5861 49.043 61.5901C48.689 60.5941 48.343 59.5991 48.01 58.5901C47.677 57.5811 47.376 56.5771 47.11 55.5591L52.04 67.1821Z" fill="black"/>
</g>
<g style="mix-blend-mode:screen" opacity="0.7">
<path d="M0.773987 33.595C0.766987 35.695 0.758995 37.795 0.744995 39.857C0.730995 41.919 0.699979 43.957 0.677979 45.927C0.626979 49.865 0.544986 53.538 0.441986 56.687C0.257986 62.987 0 67.182 0 67.182V0C0 0 0.257986 4.2 0.441986 10.495C0.541986 13.645 0.626979 17.317 0.677979 21.256C0.699979 23.225 0.744995 25.261 0.744995 27.326C0.744995 29.391 0.764987 31.493 0.773987 33.595Z" fill="white"/>
</g>
<g style="mix-blend-mode:multiply" opacity="0.25">
<path d="M36.7732 28.978C36.7453 29.5294 36.6564 30.0761 36.5082 30.608C36.4272 30.888 36.3232 31.198 36.2272 31.463C36.1155 31.7612 35.9852 32.0521 35.8372 32.334C35.5313 32.9324 35.155 33.492 34.7162 34.001C34.2621 34.5241 33.7524 34.9962 33.1962 35.409C32.6275 35.8069 32.0197 36.1457 31.3822 36.42C30.7652 36.6814 30.1188 36.867 29.4572 36.973C28.8428 37.0724 28.2189 37.0996 27.5982 37.054C27.0382 37.025 26.5222 36.973 26.0352 36.921C24.1102 36.737 22.8262 36.479 22.8262 36.479H27.5322C28.7113 36.4886 29.8795 36.2523 30.9622 35.785C32.0296 35.3316 33.0007 34.6786 33.8232 33.861C34.6435 33.0358 35.295 32.0586 35.7412 30.984C36.2108 29.8944 36.4469 28.7184 36.4342 27.532C36.4382 26.9304 36.3812 26.3301 36.2642 25.74C36.3822 26.0092 36.4762 26.2883 36.5452 26.574C36.7391 27.3597 36.816 28.1698 36.7732 28.978Z" fill="black"/>
</g>
<g style="mix-blend-mode:screen" opacity="0.7">
<path d="M18.578 18.579V67.179C18.578 67.179 18.512 65.963 18.438 63.838C18.364 61.713 18.238 58.668 18.158 55.025C18.058 51.381 17.981 47.125 17.929 42.568C17.907 40.289 17.885 37.936 17.863 35.539C17.841 33.142 17.848 30.716 17.841 28.289C17.834 25.862 17.855 23.421 17.87 21.032C17.863 19.844 17.9 18.632 17.863 17.514C17.8109 16.4015 17.6529 15.2965 17.391 14.214C16.8953 12.1491 16.0468 10.1853 14.883 8.40898C12.9206 5.43331 10.1498 3.07948 6.89603 1.62398C5.74072 1.1055 4.53408 0.709991 3.29602 0.443977C2.49469 0.27147 1.68446 0.143274 0.869019 0.0599766C0.301019 0.0229766 -0.000976562 0.000976562 -0.000976562 0.000976562C4.9259 0.00256707 9.65051 1.96053 13.1342 5.44446C16.618 8.92838 18.5757 13.6531 18.577 18.58L18.578 18.579Z" fill="white"/>
</g>
</g>
<defs>
<linearGradient id="paint0_linear_1_26" x1="54.1948" y1="27.5005" x2="7.42771" y2="27.5005" gradientUnits="userSpaceOnUse">
<stop offset="0.161458" stop-color="#3D1CFB" stop-opacity="0.69"/>
<stop offset="1" stop-color="#1D2671"/>
</linearGradient>
<linearGradient id="paint1_linear_1_26" x1="36.759" y1="53.3662" x2="39.2675" y2="67.4262" gradientUnits="userSpaceOnUse">
<stop stop-color="#3D1CFB"/>
<stop offset="0.8125" stop-color="#3D1CFB"/>
<stop offset="0.8126" stop-color="#2600FF"/>
<stop offset="0.973958" stop-color="#3E17FB"/>
<stop offset="1" stop-color="#4700FC"/>
</linearGradient>
<linearGradient id="paint2_linear_1_26" x1="9.289" y1="2.14973" x2="9.289" y2="67.3134" gradientUnits="userSpaceOnUse">
<stop offset="0.395833" stop-color="#7F46FF"/>
<stop offset="0.9998" stop-color="#3E17FB"/>
<stop offset="0.9999" stop-color="#F8007A"/>
<stop offset="1" stop-color="#8B0EC6"/>
</linearGradient>
</defs>
</svg>
